<svg width="69" height="96" viewBox="0 0 69 96" fill="none" xmlns="http://www.w3.org/2000/svg">
<g opacity="0.4" clip-path="url(#clip0_188_2981)">
<g clip-path="url(#clip1_188_2981)">
<g clip-path="url(#clip2_188_2981)">
<mask id="mask0_188_2981" style="mask-type:luminance" maskUnits="userSpaceOnUse" x="0" y="-1" width="69" height="97">
<path d="M68.8676 -0.0012207H0.462402V95.1712H68.8676V-0.0012207Z" fill="white"/>
</mask>
<g mask="url(#mask0_188_2981)">
<path d="M60.0622 56.257C64.5966 50.6697 67.5095 43.9557 68.4891 36.8399C70.4152 22.6913 64.6085 11.4924 52.1392 5.30617C48.2895 3.39615 44.0969 2.36927 40.1333 1.48177C29.981 -0.79154 20.6854 0.970048 12.5028 6.71561C5.84419 11.3918 2.18573 17.1036 1.31861 24.1781C0.66488 29.5673 1.01909 35.0304 2.36334 40.2912C5.07623 51.0306 9.93016 59.4712 17.2021 66.0941C17.3832 66.2595 17.5667 66.4236 17.7506 66.5878C18.5602 67.2683 19.3061 68.0207 19.9795 68.8351C20.596 69.6333 21.3061 70.6642 21.3231 71.5516C21.3857 74.8839 21.1907 78.1673 20.9707 81.2176C20.8343 83.1056 20.6159 85.0239 20.4044 86.8792C20.275 88.0129 20.1459 89.1466 20.0336 90.284C19.7833 92.8084 20.6482 94.0712 23.0186 94.6428C24.4249 94.9908 25.8676 95.1711 27.3165 95.1806H27.4497C32.2505 95.1401 37.1275 95.0307 41.8469 94.9242L44.9951 94.8546C48.0508 94.788 49.2821 93.6804 49.5382 90.7675C49.9867 85.6663 50.2021 81.7488 50.2351 78.0656L50.2398 77.6718C50.2662 75.487 50.2957 73.022 48.3827 70.9146L51.9425 66.4468C54.6562 63.0396 57.3628 59.6434 60.0622 56.257ZM45.0511 70.293L39.7205 69.8921C39.7132 69.8486 39.712 69.8052 39.7166 69.7618C40.5022 66.7543 41.2958 63.7499 42.0972 60.7478C43.8801 54.0316 45.7231 47.0872 47.3967 40.2208C48.6882 34.9234 48.7294 30.2289 47.5214 25.8699C46.9272 23.7251 45.7985 22.1409 44.2566 21.2886C43.5139 20.9011 42.7005 20.6674 41.8648 20.6017C41.0292 20.536 40.1885 20.6396 39.3942 20.9062C38.761 21.116 38.1511 21.3899 37.5741 21.7235L37.337 21.8494C36.9639 22.0471 36.6176 22.2751 36.2511 22.5138L36.0493 22.6453C35.9487 22.5192 35.8503 22.3934 35.7523 22.2684C35.3941 21.794 35.0116 21.3382 34.6063 20.9028C32.4519 18.6624 29.3519 18.4442 26.8905 20.3612C25.2246 21.7043 23.962 23.4776 23.2409 25.487C20.7028 31.9692 20.5144 38.7279 22.6808 45.5749C23.8146 49.1582 25.0155 52.7848 26.1788 56.2915C26.6172 57.6145 27.0546 58.9381 27.491 60.2618C28.4402 63.2318 28.9955 66.3118 29.1428 69.4251H25.0765C24.85 66.5033 22.9 64.5226 21.0145 62.6036C20.6648 62.2491 20.315 61.8934 19.9757 61.5312C12.1892 53.2381 7.91619 44.3562 6.91343 34.3779C6.56795 30.9416 6.31218 27.2828 6.77584 23.8086C7.47548 18.5664 10.4802 14.1754 15.9612 10.384C22.6369 5.76617 30.0608 4.27475 38.0227 5.9511C42.2204 6.83433 46.2987 7.7857 50.0509 9.69801C59.7648 14.6501 64.207 23.2678 62.8954 34.62C61.9912 42.4477 58.3714 49.3496 51.1574 56.9998C49.2634 59.0096 47.1479 61.4753 45.8195 64.5255C45.1296 66.1096 44.458 67.9791 45.0511 70.293ZM45.2936 79.9988L45.0713 83.4161H24.9713V79.3927L45.2936 79.9988ZM44.6714 87.7857L44.5551 90.4112C38.5416 90.6771 31.6088 90.9014 24.7644 90.3815C24.7508 90.2881 24.7369 90.2001 24.7257 90.1168C24.6763 89.8717 24.651 89.6225 24.6505 89.3727C24.6774 88.7903 24.7342 88.205 24.7936 87.5852C24.8076 87.4425 24.8214 87.2973 24.8352 87.1504L44.6714 87.7857ZM24.6222 72.8287L25.1956 72.8454C32.1115 73.0476 38.6496 73.2386 45.3352 73.9321L45.4324 75.5768C38.5845 75.954 31.7206 75.9379 24.8748 75.5269L24.6222 72.8287ZM29.7973 55.2101C29.5454 54.4135 29.292 53.6169 29.0523 52.818C27.7463 48.4892 26.4905 44.2424 25.4816 39.8792C24.5437 35.8263 25.093 31.5369 27.2042 26.3802C27.6702 25.3477 28.3367 24.4174 29.1653 23.6423C29.3189 23.4596 29.5095 23.3109 29.7246 23.2064C29.9397 23.1017 30.1745 23.0434 30.4137 23.0352C30.8669 23.0561 31.3367 23.3529 31.8097 23.917C33.0297 25.3721 33.056 25.7399 32.0614 27.4928C30.0379 31.0599 29.2138 34.4865 29.5422 37.968C29.6192 39.0633 29.876 40.138 30.3025 41.1505C30.474 41.6604 30.7827 42.1139 31.195 42.4612C31.6073 42.8087 32.1076 43.0369 32.6411 43.1213C33.1746 43.2056 33.7212 43.1426 34.2212 42.9391C34.7213 42.7356 35.1556 42.3994 35.4772 41.9672C36.198 41.1296 36.763 40.1706 37.1457 39.1356C38.5945 35.4654 38.8738 31.4404 37.9456 27.6067C37.6529 26.3509 38.5451 25.2961 40.3945 24.7123C41.1454 24.4751 41.7353 24.4748 42.147 24.7097C42.3603 24.8583 42.5403 25.0496 42.6752 25.2713C42.8104 25.4929 42.8975 25.7402 42.9309 25.9972C43.3973 28.0419 43.9745 30.5865 43.6833 32.8721C43.1781 36.8249 42.318 40.8089 41.4851 44.6614C41.3296 45.3861 41.1745 46.1103 41.0191 46.8342C40.52 49.1767 39.9747 51.5522 39.4472 53.849C38.7394 56.934 38.0091 60.1244 37.3755 63.2817C37.1078 64.8313 36.9585 66.3975 36.929 67.969C36.9002 68.5995 36.871 69.2455 36.8275 69.9081L32.0896 69.6179C32.7344 64.4958 31.2427 59.7768 29.7984 55.2101H29.7973ZM33.8126 35.2688L34.0871 33.5879C34.086 34.1591 33.9937 34.7264 33.8138 35.2688H33.8126Z" fill="black"/>
</g>
</g>
</g>
</g>
<defs>
<clipPath id="clip0_188_2981">
<rect width="69" height="95.17" fill="white"/>
</clipPath>
<clipPath id="clip1_188_2981">
<rect width="69" height="95.17" fill="white"/>
</clipPath>
<clipPath id="clip2_188_2981">
<rect width="69" height="95.1724" fill="white" transform="translate(0 -0.0012207)"/>
</clipPath>
</defs>
</svg>
