<svg width="54" height="67" viewBox="0 0 54 67" fill="none" xmlns="http://www.w3.org/2000/svg">
<g opacity="0.3" clip-path="url(#clip0_188_2971)">
<g clip-path="url(#clip1_188_2971)">
<mask id="mask0_188_2971" style="mask-type:luminance" maskUnits="userSpaceOnUse" x="-11" y="-1" width="65" height="68">
<path d="M53.9171 -0.00219727H-10.7114V66.1121H53.9171V-0.00219727Z" fill="white"/>
</mask>
<g mask="url(#mask0_188_2971)">
<path d="M53.1187 21.677C52.9188 20.8641 52.5054 20.2399 51.9557 19.9195C51.747 19.797 51.5152 19.719 51.2753 19.6904C51.035 19.6618 50.7917 19.6832 50.5603 19.7533C49.8152 19.966 48.9798 20.6262 49.2317 22.5631C49.4289 24.0789 49.5923 25.6276 49.7505 27.1236C49.8181 27.7621 49.8865 28.4003 49.9556 29.0388C49.7026 33.2855 49.4226 37.1144 48.5638 40.927C47.4421 45.9071 45.1244 50.6016 41.6757 54.879C38.8781 58.3485 35.3038 60.4987 30.7475 61.4518C26.9768 62.2128 23.1093 62.3644 19.2912 61.9008C16.1873 61.5454 12.5484 60.98 9.09112 59.4836C5.08846 57.7512 2.25542 55.7054 0.17479 53.0448C-2.90368 49.0973 -5.10421 44.5328 -6.27863 39.6597C-7.07367 36.5652 -7.28557 33.349 -6.9033 30.1767C-6.3176 25.5084 -4.73212 20.9209 -1.91416 15.7386C-0.922224 13.9095 0.418336 12.2944 2.03126 10.9852C5.95704 7.79263 9.84512 5.60023 13.9174 4.28229C16.8135 3.34486 20.0098 3.0502 23.6927 3.38173C26.1401 3.60203 28.5186 4.33511 30.8185 5.04428C31.3336 5.20303 31.8492 5.36177 32.3658 5.51547L32.6035 5.5879C33.0437 5.73814 33.498 5.84322 33.9589 5.90157C34.2649 5.92861 34.8997 5.75824 35.0208 5.39483C35.078 5.18713 35.0895 4.96936 35.0539 4.75679C35.0186 4.54422 34.9372 4.34198 34.8158 4.16429C34.5038 3.77889 34.1008 3.47815 33.6432 3.28961C32.1058 2.64898 30.7152 2.079 29.2648 1.59424C26.504 0.667902 23.61 0.203272 20.6991 0.218887C16.0302 0.258038 11.449 1.4957 7.39068 3.81418C5.89197 4.65413 4.56745 5.43469 3.3414 6.20053C-0.267692 8.45496 -2.89035 11.0954 -4.6764 14.2728C-6.81995 18.0852 -8.30069 21.5987 -9.20381 25.0131C-10.2744 29.0612 -10.659 32.2176 -10.4512 35.2465C-10.0908 40.4894 -8.42733 45.6809 -5.36384 51.1168C-4.26018 53.1243 -2.91535 54.9882 -1.35951 56.6666C1.89402 60.1172 6.0164 62.5582 11.2402 64.1283C15.2578 65.3399 19.4298 65.9561 23.6247 65.9572C25.4302 65.9568 27.2342 65.8439 29.026 65.6196C36.0571 64.7404 41.471 61.6824 45.5742 56.2707C48.858 51.9406 51.0331 47.6071 52.2239 43.0237C53.5811 37.7984 54.0851 32.1073 53.765 25.6249C53.6788 24.2908 53.4622 22.9686 53.1187 21.677Z" fill="black"/>
<path d="M26.6066 12.5095C26.8948 12.5396 27.1831 12.5703 27.4713 12.5973C27.7302 12.6214 28.4203 12.6863 28.6509 12.0124C28.749 11.7585 28.7453 11.4765 28.6409 11.2252C28.5369 10.9739 28.3401 10.7728 28.0916 10.6638C27.6358 10.4322 27.153 10.2587 26.6541 10.147C24.3729 9.66461 22.0293 9.55645 19.7137 9.82674C15.3941 10.3366 11.7673 11.4596 8.62575 13.2604C4.45204 15.6526 1.87002 18.7066 0.732183 22.5984C0.557982 23.1951 0.323723 23.7949 0.116614 24.3242C-1.66621 28.7616 -2.11058 33.6277 -1.16125 38.3169C-0.490486 41.6316 0.337243 44.307 2.19609 46.5935C6.46422 51.8425 11.318 54.8039 17.0348 55.6478C18.2673 55.8294 19.5337 55.8903 20.7559 55.949C21.3128 55.9758 21.8885 56.0036 22.4518 56.0423H22.4684H22.4745C26.8911 55.9509 31.2275 54.8355 35.1439 52.7833C36.0832 52.3135 36.9487 51.7073 37.7119 50.9845C40.1255 48.6022 41.6465 46.3435 42.4982 43.8772C42.6698 43.3799 42.8967 42.8859 43.1162 42.4082C43.1835 42.2615 43.2511 42.1152 43.3168 41.9681C45.2839 37.5915 45.2661 32.8064 43.2626 27.3396C43.0954 26.88 42.8336 26.4611 42.4941 26.1102C42.2761 25.8653 41.9964 25.6839 41.6844 25.5849C41.372 25.4862 41.0396 25.4737 40.7213 25.5488C40.4178 25.6462 40.1463 25.8255 39.9372 26.0668C39.7277 26.3081 39.5884 26.6022 39.5338 26.9176C39.3993 27.4914 39.4989 28.1301 39.5866 28.6937L39.6066 28.8204C39.7087 29.4854 39.8324 30.1567 39.952 30.8063C40.1552 31.9088 40.3654 33.0491 40.4728 34.175C40.67 36.0346 40.4219 37.9147 39.7492 39.6585C39.1509 41.2293 38.4734 42.7681 37.7194 44.2698C36.4725 46.6826 35.1079 48.2634 33.4231 49.2403C32.1037 50.0062 30.6139 50.5507 29.1732 51.077L28.6056 51.2854C26.0588 52.2243 23.3187 52.2262 20.653 52.2277H20.6327C16.5334 52.2277 13.4115 51.3184 10.8097 49.3666C10.3859 49.0483 9.94023 48.7504 9.50919 48.4625C9.03205 48.1435 8.53876 47.814 8.08082 47.46C5.59849 45.542 3.97661 43.3821 3.12273 40.8545C2.11754 37.8816 1.06547 33.9382 1.85494 29.795C2.11457 28.5536 2.43723 27.3266 2.82173 26.1184C3.05551 25.3393 3.29686 24.5336 3.50059 23.731C4.33333 20.4526 6.35171 17.9132 9.67158 15.9682C14.1499 13.3441 19.1565 12.1251 24.5392 12.3369C25.2268 12.3642 25.9276 12.438 26.6066 12.5095Z" fill="black"/>
<path d="M14.9638 24.2928C16.0517 23.6657 17.2056 23.1624 18.4045 22.7925C19.641 22.4228 20.9423 22.1728 22.2005 21.9311C22.5249 21.8686 22.8492 21.8063 23.1726 21.7419C23.5846 21.6601 24.2073 21.5361 24.2201 20.8047C24.2299 20.2309 23.8506 19.846 23.206 19.7749C22.8672 19.7368 22.5263 19.7233 22.1856 19.7346C19.8979 19.8209 17.5967 20.355 14.9446 21.4159C12.6344 22.3032 10.7525 24.0489 9.68858 26.2914C7.77182 30.2411 7.65831 34.4657 9.35214 38.8474C9.82902 40.0809 10.5465 41.6554 11.8729 42.8956C14.8449 45.6739 18.4605 47.082 22.6202 47.082C22.8175 47.082 23.0152 47.0876 23.2132 47.0939C23.3953 47.0998 23.5803 47.1061 23.7658 47.1061C23.9875 47.1076 24.2093 47.0957 24.4296 47.0697C27.3282 46.7102 29.5977 45.7344 31.3679 44.086C34.6914 40.9913 36.1942 36.8472 35.8366 31.7683C35.786 31.0524 35.435 30.3446 35.126 29.7207C34.8467 29.1575 34.2075 28.7275 33.5701 29.0424C33.1385 29.3073 32.8232 29.7264 32.6872 30.2156C32.6044 30.5565 32.5758 30.9085 32.6033 31.2582C32.6077 31.4288 32.6118 31.59 32.6033 31.7475C32.5817 32.1355 32.5724 32.53 32.5628 32.912C32.5646 33.7896 32.4967 34.6659 32.36 35.5325C31.5068 40.0865 28.951 42.7604 24.7645 43.4806C21.8149 43.9872 18.9126 43.4357 16.1394 41.84C15.07 41.2246 13.9828 40.4973 13.2746 39.3503C11.2045 35.9984 10.693 32.4296 11.754 28.7432C12.3529 26.6569 13.4341 25.1593 14.9638 24.2928Z" fill="black"/>
<path d="M43.1534 8.80617C43.1887 8.61893 43.2266 8.43169 43.2645 8.24468C43.396 7.65994 43.4903 7.06743 43.5468 6.4707C43.6251 5.41502 43.1382 5.04007 42.327 4.77706C42.0146 4.66637 41.6785 4.64111 41.3531 4.70377C41.0277 4.76643 40.725 4.91478 40.4751 5.13367C38.1778 7.0609 35.8608 9.01394 33.5892 10.9383C32.772 11.631 32.4838 12.5177 32.6881 13.7286C32.8188 14.507 32.9001 15.3107 32.9781 16.0882C33.0383 16.6791 33.1 17.2898 33.1832 17.8896C33.2482 18.3609 33.1156 18.6803 32.6947 19.0681L32.5068 19.2412C31.345 20.3108 30.1438 21.4166 29.015 22.5604C27.0052 24.5968 24.9788 26.683 23.0171 28.7005C22.0859 29.6591 21.1537 30.6173 20.2208 31.575C19.5538 32.2591 19.6942 32.7858 19.9296 33.1072C20.0166 33.2365 20.1336 33.3424 20.2705 33.4161C20.4074 33.4894 20.5603 33.528 20.7155 33.5285C21.0329 33.513 21.3377 33.3996 21.5883 33.2035C22.0251 32.878 22.4388 32.5223 22.8266 32.1391C25.0732 30.0095 27.3183 27.8779 29.5621 25.7449L33.2092 22.2804C33.5765 21.9323 33.8387 21.7641 34.3049 21.7834C36.2946 21.8433 38.3171 21.8418 40.273 21.8396C40.8283 21.8387 41.3836 21.8387 41.9392 21.8396H41.9437C42.2862 21.8485 42.6256 21.7797 42.938 21.6382C43.25 21.4967 43.526 21.2861 43.7455 21.0224C45.3311 19.2047 46.9725 17.3815 48.5094 15.6818C49.2645 14.8472 49.9179 13.9773 49.6252 12.5173C49.3608 11.2046 49.184 10.6238 47.7135 10.6156C46.9457 10.6144 46.1672 10.6552 45.4151 10.6981C44.989 10.7223 44.563 10.7464 44.1366 10.7624C43.7927 10.7749 43.4517 10.7722 43.0557 10.7688L42.7549 10.7664C42.7857 10.6154 42.8165 10.4673 42.847 10.322C42.9562 9.7955 43.0591 9.30154 43.1534 8.80617ZM46.705 13.632L46.7645 13.6364L42.6487 18.8673H35.7416C35.7215 18.7974 35.6996 18.7262 35.6777 18.6541C35.577 18.3684 35.5128 18.0711 35.4857 17.7692C35.4552 16.9705 35.4567 16.1547 35.4578 15.366C35.4578 14.8928 35.4593 14.4196 35.4537 13.947C35.4478 13.4803 35.5157 13.1075 35.8634 12.8059C37.1641 11.6781 38.4604 10.5442 39.8362 9.34065L40.9977 8.32528C40.9861 8.50553 40.9761 8.63653 40.9568 8.76275C40.9011 9.12058 40.8391 9.47749 40.7767 9.83435C40.6589 10.5136 40.5364 11.216 40.4624 11.916C40.3971 12.5332 40.4832 12.9535 40.7332 13.237C40.9836 13.5205 41.3787 13.6554 41.9845 13.6665C42.8697 13.6834 43.7689 13.6581 44.6377 13.6342C45.1086 13.6214 45.58 13.6086 46.051 13.6019C46.2441 13.6014 46.4361 13.6142 46.7047 13.633L46.705 13.632Z" fill="black"/>
</g>
</g>
</g>
<defs>
<clipPath id="clip0_188_2971">
<rect width="65" height="66.11" fill="white" transform="translate(-11)"/>
</clipPath>
<clipPath id="clip1_188_2971">
<rect width="65" height="66.1143" fill="white" transform="translate(-11 -0.00219727)"/>
</clipPath>
</defs>
</svg>
