<svg width="28" height="28" viewBox="0 0 28 28" fill="none" xmlns="http://www.w3.org/2000/svg">
<path d="M18.6667 23.3335V4.66683C18.6667 4.04799 18.4208 3.4545 17.9833 3.01691C17.5457 2.57933 16.9522 2.3335 16.3333 2.3335H11.6667C11.0478 2.3335 10.4543 2.57933 10.0168 3.01691C9.57918 3.4545 9.33334 4.04799 9.33334 4.66683V23.3335" stroke="#F97316" stroke-width="2.33333" stroke-linecap="round" stroke-linejoin="round"/>
<path d="M23.3333 7H4.66668C3.37801 7 2.33334 8.04467 2.33334 9.33333V21C2.33334 22.2887 3.37801 23.3333 4.66668 23.3333H23.3333C24.622 23.3333 25.6667 22.2887 25.6667 21V9.33333C25.6667 8.04467 24.622 7 23.3333 7Z" stroke="#F97316" stroke-width="2.33333" stroke-linecap="round" stroke-linejoin="round"/>
</svg>
