<svg width="28" height="28" viewBox="0 0 28 28" fill="none" xmlns="http://www.w3.org/2000/svg">
<path d="M17.5 2.3335H6.99999C6.38115 2.3335 5.78766 2.57933 5.35007 3.01691C4.91249 3.4545 4.66666 4.04799 4.66666 4.66683V23.3335C4.66666 23.9523 4.91249 24.5458 5.35007 24.9834C5.78766 25.421 6.38115 25.6668 6.99999 25.6668H21C21.6188 25.6668 22.2123 25.421 22.6499 24.9834C23.0875 24.5458 23.3333 23.9523 23.3333 23.3335V8.16683L17.5 2.3335Z" stroke="#F97316" stroke-width="2.33333" stroke-linecap="round" stroke-linejoin="round"/>
<path d="M16.3333 2.3335V7.00016C16.3333 7.619 16.5792 8.21249 17.0168 8.65008C17.4543 9.08766 18.0478 9.3335 18.6667 9.3335H23.3333" stroke="#F97316" stroke-width="2.33333" stroke-linecap="round" stroke-linejoin="round"/>
<path d="M9.33334 20.9998V18.6665" stroke="#F97316" stroke-width="2.33333" stroke-linecap="round" stroke-linejoin="round"/>
<path d="M14 21.0002V16.3335" stroke="#F97316" stroke-width="2.33333" stroke-linecap="round" stroke-linejoin="round"/>
<path d="M18.6667 21V14" stroke="#F97316" stroke-width="2.33333" stroke-linecap="round" stroke-linejoin="round"/>
</svg>
