<svg width="28" height="28" viewBox="0 0 28 28" fill="none" xmlns="http://www.w3.org/2000/svg">
<path d="M18.6666 24.5V22.1667C18.6666 20.929 18.175 19.742 17.2998 18.8668C16.4246 17.9917 15.2377 17.5 14 17.5H6.99998C5.7623 17.5 4.57532 17.9917 3.70015 18.8668C2.82498 19.742 2.33331 20.929 2.33331 22.1667V24.5" stroke="#F97316" stroke-width="2.33333" stroke-linecap="round" stroke-linejoin="round"/>
<path d="M18.6667 3.64941C19.6674 3.90885 20.5536 4.49322 21.1863 5.31082C21.819 6.12842 22.1623 7.13295 22.1623 8.16675C22.1623 9.20054 21.819 10.2051 21.1863 11.0227C20.5536 11.8403 19.6674 12.4246 18.6667 12.6841" stroke="#F97316" stroke-width="2.33333" stroke-linecap="round" stroke-linejoin="round"/>
<path d="M25.6667 24.4997V22.1664C25.6659 21.1324 25.3218 20.1279 24.6883 19.3107C24.0548 18.4935 23.1678 17.9099 22.1667 17.6514" stroke="#F97316" stroke-width="2.33333" stroke-linecap="round" stroke-linejoin="round"/>
<path d="M10.5 12.8333C13.0773 12.8333 15.1666 10.744 15.1666 8.16667C15.1666 5.58934 13.0773 3.5 10.5 3.5C7.92265 3.5 5.83331 5.58934 5.83331 8.16667C5.83331 10.744 7.92265 12.8333 10.5 12.8333Z" stroke="#F97316" stroke-width="2.33333" stroke-linecap="round" stroke-linejoin="round"/>
</svg>
