<svg width="72" height="68" viewBox="0 0 72 68" fill="none" xmlns="http://www.w3.org/2000/svg">
<g opacity="0.6" clip-path="url(#clip0_188_3062)">
<g clip-path="url(#clip1_188_3062)">
<g clip-path="url(#clip2_188_3062)">
<mask id="mask0_188_3062" style="mask-type:luminance" maskUnits="userSpaceOnUse" x="0" y="-1" width="72" height="69">
<path d="M71.8938 -0.00427246H0.370605V67.2838H71.8938V-0.00427246Z" fill="white"/>
</mask>
<g mask="url(#mask0_188_3062)">
<path d="M55.9362 6.46788L57.9703 4.54144C57.0114 3.55465 55.8227 3.50201 54.6545 3.51571C53.1291 3.55435 51.6529 4.06355 50.4284 4.97357C48.1468 6.60735 45.9202 8.31594 43.7477 10.0993C40.9309 12.4109 38.2638 14.9099 35.3917 17.1472C34.1067 18.148 32.4851 18.7201 31.0007 19.4552C30.7994 19.5547 30.5067 19.4688 29.9762 19.4688C30.1284 18.8109 30.1141 18.1547 30.4141 17.7117C31.1377 16.643 31.8751 15.5168 32.8421 14.6926C36.8861 11.2484 40.9571 7.82949 45.1453 4.56495C46.9443 3.14925 48.9169 1.96913 51.0149 1.05319C54.4132 -0.401882 57.7319 -0.082519 60.6152 2.50062C61.9293 2.05183 63.2182 1.50072 64.5619 1.17554C65.68 0.893951 66.8577 0.96279 67.9354 1.37267C69.0135 1.78256 69.939 2.51376 70.5879 3.46733C72.0336 5.61475 72.1915 8.42837 70.6299 10.3466C68.9977 12.3515 67.0852 14.1281 65.1121 16.1964C65.6419 17.677 64.9104 19.0624 63.6092 20.2964C58.8095 24.8495 54.1495 29.5584 49.2135 33.9576C42.3708 40.0564 35.3174 45.9182 28.374 51.9044C25.8479 54.0806 23.305 56.2435 20.9094 58.5575C18.4857 60.9173 15.6 62.7502 12.4338 63.9398C9.85654 64.914 7.28204 65.8934 4.69257 66.8323C4.06567 67.0854 3.4006 67.2318 2.72523 67.2642C1.18063 67.2724 0.275804 65.994 0.6599 64.4777C0.711192 64.276 0.783297 64.08 0.875071 63.8931C3.10699 59.3652 5.34491 54.8402 7.58883 50.318C7.82757 49.8579 8.14037 49.4402 8.51467 49.0811C14.855 42.8969 21.1834 36.6997 27.5648 30.5578C34.3593 24.0185 41.1835 17.5103 48.0381 11.0334C49.3217 9.81554 50.7469 8.74622 52.0215 7.51979C53.1782 6.40999 54.4218 5.90432 55.9362 6.46788ZM30.8022 45.2054C41.1218 36.4454 51.1389 27.6153 60.4302 17.9315L54.407 9.86027L24.3155 38.313L30.8022 45.2054ZM21.9236 40.6825L11.3385 50.5655C13.195 52.9548 14.8635 55.4281 16.7794 57.663L27.4552 47.9234C25.6212 45.523 23.8243 43.1697 21.9236 40.6825ZM62.0657 13.3057C63.1471 12.4882 64.1961 11.7964 65.1212 10.9686C66.0438 10.1359 66.9007 9.23263 67.6831 8.26697C68.417 7.36878 68.355 6.29527 67.7952 5.34224C67.2311 4.38318 66.2689 4.17669 65.2146 4.36394C64.9061 4.40373 64.6014 4.46877 64.3039 4.55825C61.9083 5.41634 59.7393 6.80661 57.9584 8.62449C59.4756 10.3521 60.9409 12.0239 62.0657 13.3057ZM8.62701 53.538C7.50271 56.572 6.45933 59.3886 5.41571 62.2047L5.70243 62.4035L12.7425 59.7314L8.62701 53.538Z" fill="black"/>
</g>
</g>
</g>
</g>
<defs>
<clipPath id="clip0_188_3062">
<rect width="72" height="67.7" fill="white"/>
</clipPath>
<clipPath id="clip1_188_3062">
<rect width="72" height="67.7" fill="white"/>
</clipPath>
<clipPath id="clip2_188_3062">
<rect width="72" height="67.7086" fill="white" transform="translate(0 -0.00427246)"/>
</clipPath>
</defs>
</svg>
