<svg width="229" height="69" viewBox="0 0 229 69" fill="none" xmlns="http://www.w3.org/2000/svg">
<path d="M200.398 27.3116C197.65 25.3395 194.771 23.5746 191.762 22.0174C188.754 20.4599 185.647 19.1265 182.441 18.0169C181.665 17.7527 180.883 17.5044 180.095 17.2723C179.308 17.0403 178.516 16.8242 177.72 16.6247C176.924 16.4248 176.124 16.2415 175.32 16.0745C174.516 15.9075 173.708 15.757 172.898 15.6232C172.088 15.4894 171.275 15.3722 170.46 15.2715C169.645 15.1709 168.828 15.0869 168.009 15.0198C167.19 14.9527 166.37 14.9022 165.55 14.8687C164.729 14.8348 163.908 14.8182 163.086 14.8182C162.265 14.8182 161.444 14.8348 160.623 14.8687C159.802 14.9022 158.982 14.9527 158.163 15.0198C157.345 15.0869 156.528 15.1709 155.713 15.2715C154.897 15.3722 154.085 15.4894 153.274 15.6232C152.464 15.757 151.657 15.9075 150.853 16.0745C150.049 16.2415 149.249 16.4248 148.453 16.6247C147.656 16.8242 146.865 17.0403 146.077 17.2723C145.29 17.5044 144.508 17.7527 143.731 18.0169C140.524 19.1272 137.416 20.461 134.405 22.0185C131.395 23.5756 128.514 25.3402 125.763 27.3116C126.817 25.8932 127.955 24.5449 129.179 23.2665C130.402 21.9877 131.7 20.7888 133.073 19.6694C134.447 18.5501 135.885 17.5189 137.387 16.5759C138.89 15.6332 140.446 14.7857 142.055 14.0332C142.873 13.6477 143.701 13.2849 144.539 12.9446C145.377 12.6044 146.224 12.2876 147.08 11.994C147.935 11.7008 148.799 11.4311 149.67 11.1849C150.541 10.939 151.419 10.717 152.302 10.5196C153.186 10.3218 154.074 10.1485 154.967 9.99947C155.861 9.85077 156.758 9.72663 157.658 9.62704C158.558 9.52779 159.461 9.4531 160.365 9.40331C161.27 9.35351 162.175 9.32861 163.081 9.32861C163.987 9.32861 164.892 9.35351 165.796 9.40331C166.701 9.4531 167.603 9.52779 168.503 9.62704C169.404 9.72663 170.301 9.85077 171.194 9.99947C172.087 10.1485 172.976 10.3218 173.86 10.5196C174.743 10.717 175.62 10.939 176.491 11.1849C177.362 11.4311 178.226 11.7008 179.082 11.994C179.938 12.2876 180.785 12.6044 181.623 12.9446C182.461 13.2849 183.288 13.6477 184.106 14.0332C185.715 14.7864 187.27 15.6343 188.773 16.5776C190.276 17.521 191.713 18.5522 193.087 19.6715C194.46 20.7909 195.759 21.9894 196.982 23.2678C198.205 24.5459 199.344 25.8938 200.398 27.3116Z" fill="#F38528"/>
<path d="M92.0005 31.2219H124.116V40.0274H103.93V45.0982H121.203V53.5302H103.93V59.1336H124.494V67.9404H92.0005V31.2219Z" fill="black"/>
<path d="M149.121 67.9404L147.555 62.7631H134.547L132.982 67.9404H120.783L134.332 31.2219H148.203L161.751 67.9404H149.121ZM137.03 54.5441H145.072L141.186 41.4687H140.971L137.03 54.5441Z" fill="#F38528"/>
<path d="M175.616 30.7924C181.122 30.7924 185.476 32.1534 188.679 34.8756C191.881 37.5977 193.482 41.4852 193.482 46.5373H182.092C182.092 44.4027 181.526 42.7128 180.393 41.4679C179.26 40.2223 177.65 39.5992 175.562 39.5992C173.151 39.5992 171.378 40.3468 170.245 41.8414C169.112 43.3352 168.546 45.4166 168.546 48.0852V51.5003C168.546 54.1339 169.112 56.207 170.245 57.7192C171.378 59.2307 173.114 59.9862 175.453 59.9862C177.757 59.9862 179.502 59.3994 180.689 58.2254C181.876 57.0518 182.47 55.3975 182.47 53.2625H193.482C193.482 58.279 191.926 62.1215 188.813 64.7901C185.701 67.459 181.301 68.7931 175.616 68.7931C169.282 68.7931 164.487 67.1924 161.231 63.9906C157.974 60.7881 156.346 56.0559 156.346 49.7934C156.346 43.5313 157.974 38.799 161.231 35.5962C164.487 32.3938 169.282 30.7924 175.616 30.7924Z" fill="black"/>
<path d="M216.37 67.9405L214.805 62.7632H201.797L200.231 67.9405H188.033L201.581 31.222H215.453L229.001 67.9405H216.37ZM204.28 54.5442H212.322L208.436 41.4688H208.22L204.28 54.5442Z" fill="#F38528"/>
<g clip-path="url(#clip0_188_2886)">
<g clip-path="url(#clip1_188_2886)">
<g clip-path="url(#clip2_188_2886)">
<path fill-rule="evenodd" clip-rule="evenodd" d="M20.7312 37.4164C15.6489 36.0953 10.7411 36.1276 5.57428 35.9221C4.56522 35.8821 3.71776 36.6759 3.67682 37.6941C3.63586 38.713 4.42363 39.5718 5.43268 39.6124C10.3321 39.8071 14.997 39.7391 19.8246 40.993C20.801 41.2468 21.7984 40.6508 22.0458 39.6636C22.2992 38.6771 21.7076 37.6697 20.7312 37.4164Z" fill="#F97316"/>
<path fill-rule="evenodd" clip-rule="evenodd" d="M30.7173 26.7408C23.0355 18.0552 13.1231 9.84411 3.08817 4.07273C2.21162 3.56941 1.0955 3.87978 0.599839 4.76589C0.104175 5.652 0.408741 6.78028 1.2853 7.2836C10.9878 12.8644 20.5746 20.8057 27.9979 29.2041C28.6711 29.9632 29.8259 30.0275 30.5748 29.3477C31.3238 28.6679 31.3906 27.4998 30.7173 26.7408Z" fill="#F97316"/>
<path fill-rule="evenodd" clip-rule="evenodd" d="M39.2285 24.6494C40.593 16.7925 38.488 8.65784 35.467 1.46955C35.0694 0.53173 33.9975 0.0946981 33.0752 0.493226C32.1468 0.892308 31.7159 1.97791 32.1074 2.91568C34.8614 9.46231 36.8768 16.855 35.6352 24.0108C35.4605 25.0148 36.1256 25.9726 37.115 26.1485C38.1044 26.3249 39.0539 25.6528 39.2285 24.6494Z" fill="#F97316"/>
</g>
</g>
</g>
<defs>
<clipPath id="clip0_188_2886">
<rect width="40" height="41.38" fill="white"/>
</clipPath>
<clipPath id="clip1_188_2886">
<rect width="40" height="41.38" fill="white"/>
</clipPath>
<clipPath id="clip2_188_2886">
<rect width="40" height="41.3793" fill="white" transform="translate(0 0.000366211)"/>
</clipPath>
</defs>
</svg>
