<svg width="140" height="140" viewBox="0 0 140 140" fill="none" xmlns="http://www.w3.org/2000/svg">
<circle cx="70" cy="70" r="70" fill="#F97316"/>
<path d="M66.856 34.984C67.432 35.048 68.04 35.048 68.68 34.984C69.384 34.92 70.024 34.952 70.6 35.08C71.176 35.144 71.688 35.336 72.136 35.656C72.584 35.912 72.936 36.424 73.192 37.192C73.448 38.024 73.512 38.856 73.384 39.688C73.256 40.52 73.096 41.32 72.904 42.088C72.008 45.736 71.304 49.384 70.792 53.032C70.28 56.616 69.704 60.232 69.064 63.88C68.68 65.864 68.296 67.816 67.912 69.736C67.528 71.656 67.112 73.576 66.664 75.496C66.152 77.928 65.608 80.392 65.032 82.888C64.52 85.32 64.04 87.752 63.592 90.184C62.952 93.576 62.088 97 61 100.456C60.936 100.584 60.904 100.712 60.904 100.84C60.904 100.968 60.872 101.096 60.808 101.224C59.912 102.632 59.208 104.136 58.696 105.736C58.184 107.272 57.608 108.808 56.968 110.344C56.2 112.072 54.888 112.904 53.032 112.84C51.56 112.712 50.184 112.744 48.904 112.936C47.496 113.064 46.344 112.616 45.448 111.592L45.352 111.496C44.072 110.536 43.048 109.416 42.28 108.136C41.576 106.856 41.032 105.416 40.648 103.816C40.392 102.728 40.072 101.704 39.688 100.744C39.304 99.784 38.952 98.792 38.632 97.768C37.992 95.848 37.384 93.96 36.808 92.104C36.232 90.184 35.688 88.264 35.176 86.344C34.664 84.552 34.184 82.76 33.736 80.968C33.288 79.176 32.776 77.384 32.2 75.592C31.688 73.992 31.24 72.392 30.856 70.792C30.472 69.192 30.152 67.56 29.896 65.896C29.704 64.68 29.448 63.496 29.128 62.344C28.808 61.128 28.488 59.944 28.168 58.792C27.848 57.704 27.592 56.584 27.4 55.432C27.208 54.28 27.016 53.16 26.824 52.072C26.504 50.472 26.216 48.872 25.96 47.272C25.768 45.672 25.512 44.072 25.192 42.472C24.872 40.424 25.224 38.728 26.248 37.384C27.272 35.976 28.776 35.24 30.76 35.176C31.848 35.112 32.872 35.08 33.832 35.08C34.856 35.08 35.88 35.048 36.904 34.984C37.736 34.984 38.376 35.144 38.824 35.464C39.336 35.72 39.72 36.104 39.976 36.616C40.296 37.064 40.52 37.608 40.648 38.248C40.776 38.824 40.904 39.432 41.032 40.072C41.352 41.992 41.8 43.912 42.376 45.832C42.952 47.688 43.432 49.576 43.816 51.496C44.648 55.336 45.384 59.176 46.024 63.016C46.728 66.856 47.464 70.696 48.232 74.536C48.296 74.856 48.424 75.176 48.616 75.496C48.808 75.816 49.064 75.912 49.384 75.784C50.024 73.672 50.504 71.688 50.824 69.832C51.528 66.376 52.104 62.952 52.552 59.56C53 56.168 53.64 52.776 54.472 49.384C54.856 47.848 55.144 46.28 55.336 44.68C55.592 43.08 56.008 41.544 56.584 40.072C56.968 39.112 57.48 38.248 58.12 37.48C58.76 36.648 59.528 36.008 60.424 35.56C61.384 35.048 62.408 34.792 63.496 34.792C64.648 34.792 65.768 34.856 66.856 34.984ZM109.215 35.08C110.879 35.464 112.127 36.424 112.959 37.96C113.343 38.792 113.567 39.624 113.631 40.456C113.759 41.224 113.791 42.024 113.727 42.856C113.663 44.2 113.631 45.544 113.631 46.888C113.695 48.168 113.727 49.48 113.727 50.824C113.727 51.208 113.695 51.496 113.631 51.688C113.631 52.392 113.631 53.128 113.631 53.896C113.695 54.6 113.695 55.336 113.631 56.104C113.567 56.808 113.375 57.48 113.055 58.12C112.799 58.76 112.351 59.304 111.711 59.752C111.071 60.2 110.367 60.456 109.599 60.52C108.895 60.584 108.159 60.584 107.391 60.52C106.239 60.52 105.055 60.52 103.839 60.52C102.687 60.456 101.535 60.424 100.383 60.424C100.063 60.36 99.7425 60.328 99.4225 60.328C99.1025 60.264 98.8145 60.168 98.5585 60.04C98.0465 59.72 97.6945 59.304 97.5025 58.792C97.3745 58.216 97.3105 57.672 97.3105 57.16C97.3105 56.584 97.3105 56.008 97.3105 55.432C97.3745 54.856 97.3105 54.312 97.1185 53.8C96.9905 53.544 96.8625 53.384 96.7345 53.32C96.5425 53.192 96.2865 53.128 95.9665 53.128C95.5185 53.128 95.0065 53.128 94.4305 53.128C93.9185 53.128 93.3745 53.16 92.7985 53.224C92.2865 53.224 91.8065 53.32 91.3585 53.512C90.9105 53.704 90.5905 54.024 90.3985 54.472C90.0785 55.048 89.9505 55.688 90.0145 56.392C90.0785 57.032 90.2705 57.64 90.5905 58.216C90.8465 58.856 91.1665 59.432 91.5505 59.944C91.9985 60.392 92.4785 60.84 92.9905 61.288C94.3345 62.504 95.7425 63.624 97.2145 64.648C98.6865 65.672 100.159 66.696 101.631 67.72C103.103 68.744 104.543 69.8 105.951 70.888C107.423 71.912 108.799 73.064 110.079 74.344C110.847 75.112 111.391 75.816 111.711 76.456C112.031 77.032 112.223 77.64 112.287 78.28C112.415 78.92 112.543 79.56 112.671 80.2C112.799 81.8 112.863 83.4 112.863 85C112.927 86.536 112.991 88.072 113.055 89.608C113.055 91.784 113.055 93.928 113.055 96.04C113.055 98.152 112.991 100.264 112.863 102.376C112.863 103.272 112.767 104.2 112.575 105.16C112.447 106.056 112.319 106.984 112.191 107.944C112.127 108.776 111.679 109.48 110.847 110.056C110.015 110.76 109.119 111.24 108.159 111.496C107.263 111.752 106.271 111.912 105.183 111.976L97.1185 112.264C96.2225 112.328 95.3585 112.392 94.5265 112.456C93.6945 112.52 92.8305 112.52 91.9345 112.456C90.8465 112.456 89.7265 112.392 88.5745 112.264C87.4865 112.2 86.3985 112.104 85.3105 111.976C84.6705 111.912 84.0625 111.848 83.4865 111.784C82.9105 111.784 82.3345 111.752 81.7585 111.688C81.1185 111.56 80.5105 111.496 79.9345 111.496C79.3585 111.56 78.7825 111.496 78.2065 111.304C77.6305 111.112 77.0865 110.824 76.5745 110.44C76.0625 110.12 75.5505 109.8 75.0385 109.48C74.7185 109.224 74.3985 108.968 74.0785 108.712C73.7585 108.392 73.4705 108.04 73.2145 107.656C72.8305 107.08 72.5745 106.44 72.4465 105.736C72.3825 104.968 72.3185 104.2 72.2545 103.432C72.1265 101.448 72.0625 99.464 72.0625 97.48C72.1265 95.496 72.2225 93.48 72.3505 91.432C72.4785 90.408 72.6385 89.384 72.8305 88.36C73.0225 87.336 73.5025 86.472 74.2705 85.768C75.1025 85 76.0945 84.552 77.2465 84.424C78.4625 84.296 79.6145 84.264 80.7025 84.328C81.3425 84.328 81.9505 84.36 82.5265 84.424C83.1025 84.424 83.7105 84.424 84.3505 84.424C84.9265 84.488 85.5025 84.584 86.0785 84.712C86.7185 84.776 87.2625 85.032 87.7105 85.48C88.0305 85.864 88.2225 86.312 88.2865 86.824C88.4145 87.272 88.5105 87.752 88.5745 88.264C88.5745 89.224 88.5425 90.248 88.4785 91.336C88.4145 92.424 88.6065 93.416 89.0545 94.312C89.0545 94.76 89.3105 95.048 89.8225 95.176C90.3345 95.24 90.9105 95.24 91.5505 95.176C92.2545 95.112 92.8945 95.016 93.4705 94.888C94.1105 94.76 94.5265 94.696 94.7185 94.696C94.8465 94.632 95.0065 94.6 95.1985 94.6C95.3905 94.536 95.5505 94.44 95.6785 94.312C95.8705 94.184 95.9985 93.992 96.0625 93.736C96.1265 93.416 96.1905 93.128 96.2545 92.872C96.3825 91.464 96.4465 90.088 96.4465 88.744C96.5105 87.336 96.1905 86.056 95.4865 84.904C95.1025 84.2 94.6225 83.592 94.0465 83.08C93.4705 82.504 92.8625 81.96 92.2225 81.448C89.8545 79.528 87.4865 77.608 85.1185 75.688C82.8145 73.704 80.4785 71.752 78.1105 69.832C77.6625 69.512 77.2145 69.16 76.7665 68.776C76.3825 68.392 76.0625 67.944 75.8065 67.432C75.4865 66.664 75.2625 65.768 75.1345 64.744C74.6225 60.712 74.3985 56.616 74.4625 52.456C74.5905 48.296 75.0385 44.2 75.8065 40.168C75.9345 39.72 76.0625 39.304 76.1905 38.92C76.3825 38.472 76.5745 38.024 76.7665 37.576C77.0865 36.872 77.7585 36.296 78.7825 35.848C79.7425 35.336 80.7345 35.016 81.7585 34.888C82.7825 34.696 83.8385 34.568 84.9265 34.504C88.1905 34.248 91.4545 34.216 94.7185 34.408C97.9825 34.536 101.247 34.568 104.511 34.504C105.279 34.504 106.047 34.568 106.815 34.696C107.647 34.824 108.447 34.952 109.215 35.08Z" fill="white"/>
</svg>
