<svg width="32" height="32" viewBox="0 0 32 32" fill="none" xmlns="http://www.w3.org/2000/svg">
<path d="M2.66675 12.6669C2.66678 11.1832 3.11687 9.73433 3.95759 8.51177C4.79831 7.28921 5.9901 6.35043 7.37556 5.81942C8.76101 5.2884 10.275 5.19014 11.7174 5.53761C13.1599 5.88507 14.463 6.66192 15.4547 7.76555C15.5246 7.84023 15.609 7.89978 15.7028 7.94048C15.7967 7.98119 15.8978 8.00219 16.0001 8.00219C16.1023 8.00219 16.2035 7.98119 16.2973 7.94048C16.3911 7.89978 16.4756 7.84023 16.5454 7.76555C17.534 6.65475 18.8374 5.87137 20.2823 5.51969C21.7271 5.168 23.2447 5.26468 24.6332 5.79686C26.0218 6.32904 27.2153 7.27149 28.0549 8.49875C28.8945 9.72602 29.3405 11.1799 29.3334 12.6669C29.3334 15.7202 27.3334 18.0002 25.3334 20.0002L18.0107 27.0842C17.7623 27.3696 17.456 27.5988 17.1121 27.7566C16.7683 27.9145 16.3948 27.9973 16.0165 27.9997C15.6381 28.0021 15.2636 27.924 14.9178 27.7705C14.572 27.617 14.2628 27.3917 14.0107 27.1095L6.66675 20.0002C4.66675 18.0002 2.66675 15.7335 2.66675 12.6669Z" stroke="#F97316" stroke-width="2.66667" stroke-linecap="round" stroke-linejoin="round"/>
</svg>
