<svg width="133" height="32" viewBox="0 0 133 32" fill="none" xmlns="http://www.w3.org/2000/svg">
<path d="M55.9857 9.39331C54.5662 8.3632 53.0792 7.44128 51.5253 6.62792C49.9714 5.81437 48.3667 5.11788 46.7112 4.53825C46.3101 4.40025 45.9062 4.27056 45.4996 4.14936C45.093 4.02816 44.6841 3.91526 44.2728 3.81104C43.8615 3.70664 43.4482 3.61091 43.033 3.52367C42.6177 3.43642 42.2008 3.35785 41.7823 3.28795C41.3638 3.21804 40.944 3.15681 40.523 3.10425C40.1019 3.05169 39.68 3.0078 39.2571 2.97275C38.8343 2.93771 38.4109 2.91134 37.987 2.89382C37.563 2.87612 37.1389 2.86745 36.7146 2.86745C36.2904 2.86745 35.8662 2.87612 35.4423 2.89382C35.0184 2.91134 34.595 2.93771 34.1721 2.97275C33.7493 3.0078 33.3274 3.05169 32.9063 3.10425C32.4853 3.15681 32.0655 3.21804 31.647 3.28795C31.2285 3.35785 30.8116 3.43642 30.3965 3.52367C29.9812 3.61091 29.568 3.70664 29.1567 3.81104C28.7454 3.91526 28.3365 4.02816 27.9299 4.14936C27.5233 4.27056 27.1192 4.40025 26.718 4.53825C25.0619 5.11824 23.4565 5.81491 21.9015 6.62846C20.3466 7.44182 18.8588 8.36356 17.438 9.39331C17.9822 8.65238 18.5702 7.94812 19.202 7.28034C19.8336 6.61238 20.5041 5.98615 21.2134 5.40146C21.9228 4.81677 22.6655 4.27814 23.4417 3.78557C24.2178 3.29319 25.0214 2.85047 25.8525 2.45743C26.2748 2.25603 26.7023 2.06655 27.1353 1.88881C27.5681 1.71108 28.0056 1.54562 28.4475 1.39227C28.8895 1.2391 29.3357 1.09821 29.7854 0.969604C30.2354 0.841178 30.6886 0.725216 31.1448 0.622078C31.6013 0.51876 32.0601 0.428266 32.5214 0.350416C32.9829 0.272746 33.446 0.207901 33.911 0.155881C34.3761 0.104041 34.8421 0.0650256 35.3092 0.0390154C35.7765 0.0130051 36.2439 0 36.7118 0C37.1798 0 37.6472 0.0130051 38.1143 0.0390154C38.5816 0.0650256 39.0476 0.104041 39.5126 0.155881C39.9777 0.207901 40.4408 0.272746 40.9021 0.350416C41.3636 0.428266 41.8224 0.51876 42.2788 0.622078C42.7351 0.725216 43.1883 0.841178 43.6381 0.969604C44.088 1.09821 44.534 1.2391 44.976 1.39227C45.4181 1.54562 45.8556 1.71108 46.2884 1.88881C46.7212 2.06655 47.1487 2.25603 47.571 2.45743C48.4019 2.85083 49.2053 3.29373 49.9813 3.78648C50.7575 4.27923 51.5 4.81786 52.2093 5.40254C52.9187 5.98723 53.5893 6.61328 54.221 7.28106C54.8528 7.94866 55.4411 8.65274 55.9857 9.39331Z" fill="#F38528"/>
<path d="M0 11.4353H16.5873V16.0348H6.16154V18.6835H15.0823V23.0879H6.16154V26.0148H16.7824V30.615H0V11.4353Z" fill="black"/>
<path d="M75.8503 19.514C76.2361 19.514 76.5674 19.5832 76.8444 19.7214C77.1219 19.8592 77.3357 20.0696 77.486 20.3529C77.6363 20.6361 77.7114 20.9914 77.7114 21.4186C77.7114 21.8463 77.6363 22.2018 77.486 22.485C77.3357 22.7678 77.1219 22.9783 76.8444 23.1165C76.5674 23.2548 76.2361 23.3238 75.8503 23.3238H74.6177V19.514H75.8503ZM75.8062 22.9431C76.1241 22.9431 76.3873 22.8937 76.5959 22.7949C76.8043 22.6958 76.9624 22.5341 77.0699 22.3101C77.1777 22.0862 77.2317 21.789 77.2317 21.4186C77.2317 21.0468 77.1777 20.7493 77.0699 20.5263C76.9624 20.3028 76.8043 20.1417 76.5959 20.0429C76.3873 19.9437 76.1241 19.8941 75.8062 19.8941H75.0664V22.9431H75.8062Z" fill="black"/>
<path d="M78.5923 23.3235V20.4494H78.9962V20.9002L79.0504 20.9133C79.1842 20.5863 79.4362 20.4227 79.8061 20.4227C80.0026 20.4227 80.1495 20.4584 80.2468 20.5296L80.137 20.8894L80.085 20.9002C79.9775 20.8464 79.8596 20.8193 79.731 20.8193C79.5016 20.8193 79.3251 20.9053 79.2014 21.0773C79.078 21.2492 79.0164 21.5281 79.0164 21.9139V23.3235H78.5923Z" fill="black"/>
<path d="M81.0254 19.8941C80.9352 19.8941 80.8617 19.8659 80.805 19.8095C80.7486 19.7532 80.7205 19.6815 80.7205 19.5942C80.7205 19.5075 80.7486 19.436 80.805 19.3796C80.8617 19.3233 80.9352 19.2951 81.0254 19.2951C81.1159 19.2951 81.1894 19.3233 81.2457 19.3796C81.3021 19.436 81.3303 19.5075 81.3303 19.5942C81.3303 19.6815 81.3021 19.7532 81.2457 19.8095C81.1894 19.8659 81.1159 19.8941 81.0254 19.8941ZM80.8122 23.3238V20.4497H81.2363V23.3238H80.8122Z" fill="black"/>
<path d="M83.5558 23.3237H82.972L81.8774 20.4496H82.3362L83.2401 22.8389H83.3001L84.1967 20.4496H84.6446L83.5558 23.3237Z" fill="black"/>
<path d="M85.4965 19.8941C85.4064 19.8941 85.3329 19.8659 85.2762 19.8095C85.2198 19.7532 85.1917 19.6815 85.1917 19.5942C85.1917 19.5075 85.2198 19.436 85.2762 19.3796C85.3329 19.3233 85.4064 19.2951 85.4965 19.2951C85.587 19.2951 85.6606 19.3233 85.7169 19.3796C85.7733 19.436 85.8014 19.5075 85.8014 19.5942C85.8014 19.6815 85.7733 19.7532 85.7169 19.8095C85.6606 19.8659 85.587 19.8941 85.4965 19.8941ZM85.2834 23.3238V20.4497H85.7075V23.3238H85.2834Z" fill="black"/>
<path d="M86.7087 23.3239V20.4497H87.1126V20.9006L87.1668 20.9136C87.2625 20.7451 87.3846 20.6165 87.5331 20.5278C87.682 20.4393 87.8629 20.3948 88.0764 20.3948C88.4222 20.3948 88.6729 20.483 88.8286 20.6593C88.9841 20.8356 89.0619 21.107 89.0619 21.4735V23.3239H88.6371V21.4844C88.6371 21.3106 88.6149 21.1712 88.5706 21.066C88.5262 20.9606 88.4576 20.884 88.3647 20.8363C88.2717 20.7886 88.1496 20.7648 87.9984 20.7648C87.7398 20.7648 87.5306 20.8506 87.3713 21.022C87.2123 21.193 87.1329 21.4685 87.1329 21.8485V23.3239H86.7087Z" fill="black"/>
<path d="M90.997 24.5424C90.5432 24.5424 90.212 24.4667 90.0035 24.3155C89.7954 24.1642 89.6914 23.9637 89.6914 23.7137C89.6914 23.5522 89.74 23.4236 89.8374 23.3279C89.9345 23.2325 90.0761 23.1638 90.2622 23.1219V23.0677C90.1735 23.0172 90.107 22.9583 90.0628 22.8907C90.0183 22.8228 89.9963 22.7419 89.9963 22.648C89.9963 22.5367 90.0313 22.4464 90.1018 22.377C90.1721 22.3073 90.2766 22.2542 90.4154 22.2181V22.1632C90.1027 21.9981 89.9465 21.7295 89.9465 21.3576C89.9465 21.1703 89.9891 21.0035 90.0743 20.8576C90.1596 20.7117 90.2812 20.598 90.4392 20.5166C90.5971 20.4348 90.7813 20.3938 90.9919 20.3938C91.2332 20.3938 91.4345 20.4469 91.5959 20.5527C91.657 20.4848 91.7029 20.4124 91.7332 20.3352C91.7636 20.2577 91.7831 20.1703 91.7917 20.073L91.8466 20.039L92.1956 20.1228C92.1783 20.2688 92.1344 20.3921 92.0641 20.4927C91.9937 20.5935 91.8943 20.6768 91.7657 20.7427V20.7976C91.8577 20.8704 91.9258 20.9559 91.9702 21.0541C92.0144 21.1524 92.0367 21.2665 92.0367 21.3966C92.0367 21.5778 91.993 21.7403 91.9059 21.8843C91.8192 22.0284 91.6967 22.1419 91.5389 22.2246C91.3808 22.3069 91.1986 22.3481 90.9919 22.3481C90.9674 22.3481 90.9236 22.3465 90.8611 22.3431C90.7918 22.3398 90.7405 22.338 90.7073 22.338C90.6171 22.338 90.545 22.3615 90.4912 22.4081C90.4372 22.4549 90.4103 22.5149 90.4103 22.588C90.4103 22.6781 90.4394 22.7446 90.4977 22.7874C90.5559 22.8299 90.652 22.8537 90.786 22.8589L91.4659 22.8821C91.7596 22.8927 91.9771 22.9612 92.1183 23.0873C92.2599 23.213 92.3307 23.3914 92.3307 23.6226C92.3307 23.7946 92.2847 23.9494 92.1927 24.0872C92.1006 24.2254 91.9547 24.3357 91.7549 24.4181C91.5555 24.5008 91.3028 24.5424 90.997 24.5424ZM90.9919 21.9833C91.1951 21.9833 91.3521 21.9303 91.463 21.8243C91.5743 21.7185 91.6299 21.5698 91.6299 21.3785C91.6299 21.1806 91.5746 21.0279 91.4644 20.9205C91.3541 20.8126 91.1966 20.7586 90.9919 20.7586C90.7867 20.7586 90.6301 20.8121 90.5223 20.919C90.4148 21.0256 90.3612 21.1788 90.3612 21.3785C90.3612 21.5718 90.4148 21.7208 90.5223 21.8258C90.6301 21.9309 90.7867 21.9833 90.9919 21.9833ZM90.997 24.1775C91.2089 24.1775 91.3821 24.1539 91.5165 24.1067C91.6512 24.0599 91.748 23.9978 91.8069 23.9203C91.8662 23.8432 91.8958 23.757 91.8958 23.6616C91.8958 23.5764 91.8795 23.5078 91.8474 23.4557C91.8156 23.4037 91.7639 23.3647 91.6927 23.3387C91.6214 23.3127 91.524 23.2961 91.4009 23.2888L90.7571 23.2578H90.6661C90.3063 23.2632 90.1264 23.403 90.1264 23.6775C90.1264 24.0108 90.4164 24.1775 90.997 24.1775Z" fill="black"/>
<path d="M95.6801 23.3787C95.4663 23.3787 95.2806 23.3375 95.1231 23.2552C94.9659 23.1724 94.8415 23.0633 94.7495 22.9279L94.6946 22.938V23.3238H94.2705V19.2951H94.6946V20.8796L94.7495 20.8897C94.9686 20.5599 95.2865 20.3948 95.7032 20.3948C95.9397 20.3948 96.1465 20.4495 96.3239 20.5588C96.5011 20.6682 96.6385 20.8346 96.7364 21.058C96.8347 21.2811 96.8838 21.5578 96.8838 21.8882C96.8838 22.2148 96.832 22.4898 96.7285 22.7133C96.6253 22.9364 96.4835 23.1031 96.3029 23.2133C96.1223 23.3236 95.9146 23.3787 95.6801 23.3787ZM95.5782 22.998C96.1519 22.998 96.4388 22.628 96.4388 21.8882C96.4388 21.5038 96.3638 21.2224 96.2141 21.0436C96.0647 20.8644 95.8528 20.7748 95.5782 20.7748C95.3089 20.7748 95.0943 20.8666 94.9345 21.0501C94.7745 21.2332 94.6946 21.5125 94.6946 21.8882C94.6946 22.2615 94.7745 22.5399 94.9345 22.7234C95.0943 22.9066 95.3089 22.998 95.5782 22.998Z" fill="black"/>
<path d="M98.8484 23.3788C98.5776 23.3788 98.3419 23.3215 98.1411 23.2068C97.9402 23.0923 97.7852 22.9234 97.6765 22.7004C97.5681 22.4769 97.5139 22.2062 97.5139 21.8883C97.5139 21.5704 97.5681 21.2994 97.6765 21.0754C97.7852 20.8511 97.9402 20.6815 98.1411 20.5668C98.3419 20.4523 98.5776 20.3948 98.8484 20.3948C99.1195 20.3948 99.3552 20.4523 99.5557 20.5668C99.7566 20.6815 99.9112 20.8511 100.02 21.0754C100.128 21.2994 100.183 21.5704 100.183 21.8883C100.183 22.2062 100.128 22.4769 100.02 22.7004C99.9112 22.9234 99.7566 23.0923 99.5557 23.2068C99.3552 23.3215 99.1195 23.3788 98.8484 23.3788ZM98.8484 22.998C99.1349 22.998 99.3543 22.9077 99.5066 22.7271C99.6587 22.5465 99.7349 22.2669 99.7349 21.8883C99.7349 21.5079 99.6587 21.2272 99.5066 21.0465C99.3543 20.8655 99.1349 20.7749 98.8484 20.7749C98.5617 20.7749 98.3419 20.8657 98.1887 21.0473C98.0359 21.229 97.9597 21.5093 97.9597 21.8883C97.9597 22.2669 98.0359 22.5465 98.1887 22.7271C98.3419 22.9077 98.5617 22.998 98.8484 22.998Z" fill="black"/>
<path d="M101.641 23.3787C101.438 23.3787 101.278 23.3209 101.162 23.2053C101.046 23.0897 100.988 22.9174 100.988 22.688V19.2951H101.412V22.6591C101.412 22.779 101.435 22.8656 101.481 22.9185C101.527 22.9716 101.599 22.998 101.696 22.998C101.756 22.998 101.816 22.9884 101.876 22.9691L101.913 22.9799L101.962 23.3137C101.931 23.3343 101.886 23.3502 101.828 23.3614C101.77 23.3729 101.708 23.3787 101.641 23.3787Z" fill="black"/>
<path d="M103.551 23.3787C103.32 23.3787 103.117 23.3236 102.94 23.2133C102.764 23.1031 102.626 22.9365 102.526 22.714C102.426 22.4915 102.376 22.2162 102.376 21.8882C102.376 21.5598 102.428 21.284 102.532 21.0609C102.636 20.8375 102.78 20.6706 102.963 20.5602C103.147 20.45 103.359 20.3948 103.601 20.3948C103.792 20.3948 103.964 20.4309 104.116 20.5031C104.27 20.575 104.401 20.6935 104.511 20.8586L104.565 20.8478V19.2951H104.99V23.3238H104.565V22.904L104.511 22.8939C104.417 23.0366 104.29 23.1531 104.129 23.2436C103.968 23.3336 103.775 23.3787 103.551 23.3787ZM103.684 22.998C103.952 22.998 104.166 22.9066 104.325 22.7234C104.485 22.5399 104.565 22.2615 104.565 21.8882C104.565 21.5125 104.485 21.2332 104.325 21.0501C104.166 20.8666 103.952 20.7748 103.684 20.7748C103.408 20.7748 103.195 20.8644 103.046 21.0436C102.896 21.2224 102.822 21.5038 102.822 21.8882C102.822 22.628 103.109 22.998 103.684 22.998Z" fill="black"/>
<path d="M107.987 23.3786C107.703 23.3786 107.482 23.3049 107.323 23.1575C107.164 23.0098 107.085 22.7984 107.085 22.5239C107.085 22.3534 107.12 22.2096 107.19 22.0925C107.261 21.9751 107.37 21.8794 107.517 21.8057C107.665 21.732 107.858 21.6753 108.096 21.6352C108.305 21.6005 108.463 21.5615 108.571 21.5182C108.68 21.4744 108.753 21.4257 108.79 21.3722C108.828 21.3184 108.846 21.2505 108.846 21.1685C108.846 21.0384 108.802 20.9387 108.712 20.8693C108.623 20.7996 108.479 20.7646 108.281 20.7646C108.095 20.7646 107.936 20.8007 107.803 20.873C107.67 20.9448 107.548 21.052 107.437 21.1945H107.385L107.176 20.9004C107.298 20.7458 107.452 20.623 107.64 20.5319C107.828 20.4405 108.042 20.3947 108.281 20.3947C108.62 20.3947 108.87 20.4691 109.03 20.6179C109.191 20.7664 109.271 20.9716 109.271 21.2335V22.758C109.271 22.918 109.339 22.9978 109.475 22.9978C109.52 22.9978 109.563 22.9903 109.605 22.9747L109.642 22.9848L109.691 23.2796C109.66 23.3004 109.618 23.3163 109.567 23.3273C109.516 23.3389 109.463 23.3446 109.41 23.3446C109.251 23.3446 109.132 23.31 109.051 23.2406C108.97 23.1709 108.919 23.0683 108.896 22.9328L108.841 22.9278C108.76 23.0791 108.65 23.192 108.51 23.2666C108.372 23.3412 108.197 23.3786 107.987 23.3786ZM108.081 23.0398C108.24 23.0398 108.379 23.0029 108.496 22.9292C108.613 22.8551 108.703 22.7513 108.766 22.6178C108.828 22.484 108.859 22.3292 108.859 22.1532V21.7891L108.81 21.7783C108.746 21.8236 108.667 21.8613 108.575 21.8917C108.483 21.922 108.355 21.9495 108.19 21.9741C108.023 21.9963 107.891 22.031 107.792 22.0781C107.694 22.1249 107.625 22.1843 107.583 22.2566C107.541 22.3288 107.521 22.418 107.521 22.5239C107.521 22.6926 107.57 22.8207 107.669 22.9083C107.768 22.996 107.905 23.0398 108.081 23.0398Z" fill="black"/>
<path d="M110.274 23.3239V20.4497H110.678V20.8739L110.732 20.8847C110.83 20.7229 110.947 20.6008 111.086 20.5184C111.224 20.436 111.389 20.3948 111.582 20.3948C111.805 20.3948 111.977 20.4371 112.098 20.5213C112.22 20.6056 112.315 20.7415 112.383 20.9288H112.437C112.536 20.7536 112.658 20.6208 112.803 20.5307C112.948 20.4402 113.127 20.3948 113.339 20.3948C113.634 20.3948 113.854 20.4749 113.999 20.6347C114.144 20.7942 114.217 21.0375 114.217 21.3644V23.3239H113.792V21.3746C113.792 21.1661 113.748 21.0124 113.661 20.9136C113.573 20.8144 113.432 20.7648 113.237 20.7648C113.008 20.7648 112.82 20.8484 112.675 21.0155C112.53 21.1822 112.458 21.4566 112.458 21.8384V23.3239H112.033V21.3746C112.033 21.1661 111.989 21.0124 111.901 20.9136C111.814 20.8144 111.673 20.7648 111.478 20.7648C111.249 20.7648 111.061 20.8457 110.916 21.0075C110.771 21.169 110.699 21.4313 110.699 21.7943V23.3239H110.274Z" fill="black"/>
<path d="M116.583 23.3787C116.369 23.3787 116.183 23.3375 116.026 23.2552C115.869 23.1724 115.744 23.0633 115.652 22.9279L115.597 22.938V23.3238H115.173V19.2951H115.597V20.8796L115.652 20.8897C115.871 20.5599 116.189 20.3948 116.606 20.3948C116.842 20.3948 117.049 20.4495 117.226 20.5588C117.404 20.6682 117.541 20.8346 117.639 21.058C117.737 21.2811 117.786 21.5578 117.786 21.8882C117.786 22.2148 117.735 22.4898 117.631 22.7133C117.528 22.9364 117.386 23.1031 117.206 23.2133C117.025 23.3236 116.817 23.3787 116.583 23.3787ZM116.481 22.998C117.055 22.998 117.341 22.628 117.341 21.8882C117.341 21.5038 117.266 21.2224 117.117 21.0436C116.967 20.8644 116.755 20.7748 116.481 20.7748C116.212 20.7748 115.997 20.8666 115.837 21.0501C115.677 21.2332 115.597 21.5125 115.597 21.8882C115.597 22.2615 115.677 22.5399 115.837 22.7234C115.997 22.9066 116.212 22.998 116.481 22.998Z" fill="black"/>
<path d="M118.815 19.8941C118.725 19.8941 118.652 19.8659 118.595 19.8095C118.539 19.7532 118.51 19.6815 118.51 19.5942C118.51 19.5075 118.539 19.436 118.595 19.3796C118.652 19.3233 118.725 19.2951 118.815 19.2951C118.906 19.2951 118.979 19.3233 119.036 19.3796C119.092 19.436 119.12 19.5075 119.12 19.5942C119.12 19.6815 119.092 19.7532 119.036 19.8095C118.979 19.8659 118.906 19.8941 118.815 19.8941ZM118.602 23.3238V20.4497H119.026V23.3238H118.602Z" fill="black"/>
<path d="M121.471 22.8681L121.607 23.173C121.539 23.2406 121.45 23.2915 121.34 23.3262C121.23 23.3612 121.11 23.3789 120.982 23.3789C120.432 23.3789 120.158 23.1011 120.158 22.5452V20.796H119.657V20.447H120.158V19.8401L120.583 19.7693V20.447H121.508V20.796H120.583V22.5033C120.583 22.8333 120.726 22.9982 121.013 22.9982C121.169 22.9982 121.304 22.9548 121.417 22.8681H121.471Z" fill="black"/>
<path d="M122.43 19.8941C122.34 19.8941 122.266 19.8659 122.209 19.8095C122.153 19.7532 122.125 19.6815 122.125 19.5942C122.125 19.5075 122.153 19.436 122.209 19.3796C122.266 19.3233 122.34 19.2951 122.43 19.2951C122.52 19.2951 122.594 19.3233 122.65 19.3796C122.706 19.436 122.735 19.5075 122.735 19.5942C122.735 19.6815 122.706 19.7532 122.65 19.8095C122.594 19.8659 122.52 19.8941 122.43 19.8941ZM122.217 23.3238V20.4497H122.641V23.3238H122.217Z" fill="black"/>
<path d="M124.791 23.3788C124.52 23.3788 124.284 23.3215 124.083 23.2068C123.882 23.0923 123.727 22.9234 123.619 22.7004C123.51 22.4769 123.456 22.2062 123.456 21.8883C123.456 21.5704 123.51 21.2994 123.619 21.0754C123.727 20.8511 123.882 20.6815 124.083 20.5668C124.284 20.4523 124.52 20.3948 124.791 20.3948C125.062 20.3948 125.297 20.4523 125.498 20.5668C125.699 20.6815 125.853 20.8511 125.962 21.0754C126.07 21.2994 126.125 21.5704 126.125 21.8883C126.125 22.2062 126.07 22.4769 125.962 22.7004C125.853 22.9234 125.699 23.0923 125.498 23.2068C125.297 23.3215 125.062 23.3788 124.791 23.3788ZM124.791 22.998C125.077 22.998 125.296 22.9077 125.449 22.7271C125.601 22.5465 125.677 22.2669 125.677 21.8883C125.677 21.5079 125.601 21.2272 125.449 21.0465C125.296 20.8655 125.077 20.7749 124.791 20.7749C124.504 20.7749 124.284 20.8657 124.131 21.0473C123.978 21.229 123.902 21.5093 123.902 21.8883C123.902 22.2669 123.978 22.5465 124.131 22.7271C124.284 22.9077 124.504 22.998 124.791 22.998Z" fill="black"/>
<path d="M126.941 23.3239V20.4497H127.345V20.9006L127.399 20.9136C127.494 20.7451 127.617 20.6165 127.765 20.5278C127.914 20.4393 128.095 20.3948 128.308 20.3948C128.654 20.3948 128.905 20.483 129.061 20.6593C129.216 20.8356 129.294 21.107 129.294 21.4735V23.3239H128.869V21.4844C128.869 21.3106 128.847 21.1712 128.803 21.066C128.758 20.9606 128.69 20.884 128.597 20.8363C128.504 20.7886 128.382 20.7648 128.23 20.7648C127.972 20.7648 127.763 20.8506 127.603 21.022C127.444 21.193 127.365 21.4685 127.365 21.8485V23.3239H126.941Z" fill="black"/>
<path d="M131.06 23.3785C130.879 23.3785 130.712 23.3547 130.558 23.307C130.405 23.259 130.275 23.1932 130.169 23.1098C130.063 23.0265 129.988 22.9328 129.945 22.8287L130.195 22.5679H130.25C130.343 22.7106 130.456 22.8179 130.588 22.8901C130.72 22.962 130.878 22.9978 131.06 22.9978C131.272 22.9978 131.433 22.9566 131.543 22.8742C131.653 22.7915 131.708 22.6763 131.708 22.5289C131.708 22.4158 131.675 22.3222 131.608 22.2485C131.542 22.1748 131.433 22.1198 131.284 22.0831L130.8 21.9632C130.54 21.9007 130.351 21.8017 130.232 21.6662C130.113 21.5309 130.054 21.3633 130.054 21.1633C130.054 21.0069 130.094 20.8711 130.174 20.7558C130.254 20.6402 130.369 20.5512 130.519 20.4885C130.669 20.426 130.848 20.3946 131.055 20.3946C131.318 20.3946 131.527 20.4314 131.679 20.5051C131.831 20.5788 131.949 20.682 132.034 20.8144L131.794 21.0485H131.742C131.65 20.9426 131.55 20.8662 131.441 20.8194C131.333 20.7723 131.204 20.7486 131.055 20.7486C130.865 20.7486 130.72 20.7826 130.62 20.8505C130.519 20.9184 130.469 21.0167 130.469 21.1453C130.469 21.2614 130.504 21.3552 130.575 21.4263C130.646 21.4977 130.77 21.5549 130.948 21.5983L131.425 21.7132C131.675 21.7724 131.855 21.8707 131.966 22.0079C132.078 22.1449 132.133 22.3168 132.133 22.5238C132.133 22.6925 132.093 22.841 132.013 22.9696C131.934 23.0979 131.813 23.1979 131.651 23.2702C131.49 23.3424 131.293 23.3785 131.06 23.3785Z" fill="black"/>
<path d="M75.8416 30.7812H75.3048L74.6011 27.907H75.0209L75.5656 30.2863H75.6198L76.2896 27.907H76.7354L77.4261 30.2863H77.481L78.0149 27.907H78.4217L77.7259 30.7812H77.1862L76.5294 28.5501H76.4745L75.8416 30.7812Z" fill="black"/>
<path d="M79.3198 27.3503C79.2297 27.3503 79.1561 27.3221 79.0994 27.2658C79.0431 27.2094 79.0149 27.1377 79.0149 27.0505C79.0149 26.9638 79.0431 26.8922 79.0994 26.8359C79.1561 26.7795 79.2297 26.7513 79.3198 26.7513C79.4103 26.7513 79.4838 26.7795 79.5402 26.8359C79.5965 26.8922 79.6247 26.9638 79.6247 27.0505C79.6247 27.1377 79.5965 27.2094 79.5402 27.2658C79.4838 27.3221 79.4103 27.3503 79.3198 27.3503ZM79.1067 30.78V27.9059H79.5308V30.78H79.1067Z" fill="black"/>
<path d="M81.9763 30.3255L82.1114 30.6304C82.0439 30.6979 81.955 30.7488 81.8448 30.7835C81.7345 30.8186 81.6151 30.8363 81.4865 30.8363C80.9374 30.8363 80.6628 30.5585 80.6628 30.0025V28.2533H80.1621V27.9043H80.6628V27.2974L81.0876 27.2266V27.9043H82.0124V28.2533H81.0876V29.9606C81.0876 30.2906 81.2309 30.4555 81.5175 30.4555C81.674 30.4555 81.8087 30.4122 81.9214 30.3255H81.9763Z" fill="black"/>
<path d="M82.7207 30.78V26.7513H83.1448V28.3148L83.1997 28.325C83.4049 28.009 83.7011 27.851 84.0884 27.851C84.4341 27.851 84.6848 27.9391 84.8405 28.1154C84.9961 28.2917 85.0739 28.5632 85.0739 28.9297V30.78H84.6491V28.9405C84.6491 28.7668 84.6269 28.6273 84.5826 28.5222C84.5382 28.4167 84.4695 28.3401 84.3767 28.2924C84.2837 28.2448 84.1616 28.2209 84.0104 28.2209C83.7497 28.2209 83.5402 28.3053 83.3818 28.4738C83.2237 28.6425 83.1448 28.9194 83.1448 29.3047V30.78H82.7207Z" fill="black"/>
<path d="M88.4868 30.835C88.2334 30.835 88.0058 30.7772 87.804 30.6616C87.6026 30.546 87.4437 30.3759 87.3272 30.1508C87.2105 29.9259 87.1523 29.6572 87.1523 29.3445C87.1523 29.03 87.2105 28.7603 87.3272 28.5353C87.4437 28.3104 87.6026 28.1401 87.804 28.0245C88.0058 27.9089 88.2334 27.8511 88.4868 27.8511C88.7906 27.8511 89.0325 27.9085 89.2122 28.023C89.3923 28.1377 89.5223 28.2907 89.6024 28.4818L89.3134 28.6899H89.2606C89.1826 28.532 89.0823 28.4161 88.9601 28.3424C88.8376 28.2683 88.6799 28.2311 88.4868 28.2311C88.3094 28.2311 88.1539 28.273 88.0201 28.3568C87.8866 28.4403 87.7827 28.5653 87.7087 28.7318C87.635 28.8985 87.5981 29.1028 87.5981 29.3445C87.5981 29.584 87.6353 29.7867 87.7101 29.9528C87.7847 30.1187 87.8886 30.2437 88.0215 30.3278C88.1545 30.4122 88.3094 30.4543 88.4868 30.4543C88.6866 30.4543 88.852 30.4093 88.9832 30.3192C89.1147 30.2287 89.2176 30.0861 89.2924 29.8914H89.3466L89.6255 30.0554C89.5507 30.2973 89.4174 30.4879 89.2252 30.6269C89.0334 30.7657 88.7874 30.835 88.4868 30.835Z" fill="black"/>
<path d="M90.9434 30.8351C90.74 30.8351 90.5802 30.7773 90.4637 30.6617C90.3475 30.5461 90.2896 30.3738 90.2896 30.1444V26.7515H90.7144V30.1155C90.7144 30.2355 90.7371 30.322 90.783 30.3749C90.8293 30.428 90.901 30.4544 90.9983 30.4544C91.0576 30.4544 91.1175 30.4448 91.1782 30.4255L91.2151 30.4363L91.2642 30.7701C91.2328 30.7907 91.188 30.8066 91.1298 30.8178C91.072 30.8294 91.0099 30.8351 90.9434 30.8351Z" fill="black"/>
<path d="M92.5489 30.835C92.2657 30.835 92.0446 30.7613 91.8856 30.6139C91.7267 30.4662 91.6472 30.2549 91.6472 29.9803C91.6472 29.8098 91.6823 29.666 91.7527 29.549C91.823 29.4316 91.9319 29.3358 92.0793 29.2621C92.227 29.1884 92.4203 29.1317 92.6587 29.0916C92.8668 29.0569 93.025 29.0179 93.1334 28.9746C93.2422 28.9309 93.3151 28.8821 93.3523 28.8286C93.3899 28.7748 93.4087 28.7069 93.4087 28.6249C93.4087 28.4948 93.3639 28.3951 93.2743 28.3258C93.1851 28.256 93.0417 28.221 92.8437 28.221C92.6576 28.221 92.4983 28.2571 92.3654 28.3294C92.2324 28.4013 92.1103 28.5084 91.9991 28.6509H91.9471L91.7383 28.3568C91.86 28.2022 92.0146 28.0794 92.2021 27.9884C92.39 27.897 92.6038 27.8511 92.8437 27.8511C93.1822 27.8511 93.4318 27.9255 93.5922 28.0743C93.753 28.2228 93.8335 28.428 93.8335 28.6899V30.2144C93.8335 30.3744 93.9014 30.4543 94.0373 30.4543C94.0821 30.4543 94.1254 30.4467 94.1673 30.4311L94.2042 30.4413L94.2533 30.736C94.2219 30.7568 94.1805 30.7727 94.129 30.7837C94.0779 30.7953 94.0257 30.8011 93.9722 30.8011C93.8137 30.8011 93.6941 30.7664 93.6132 30.697C93.5326 30.6273 93.4811 30.5247 93.4585 30.3892L93.4036 30.3842C93.3222 30.5355 93.2118 30.6484 93.0727 30.723C92.934 30.7976 92.7593 30.835 92.5489 30.835ZM92.6428 30.4962C92.8027 30.4962 92.9412 30.4593 93.0583 30.3856C93.1757 30.3116 93.2656 30.2077 93.3278 30.0742C93.3903 29.9404 93.4217 29.7856 93.4217 29.6097V29.2455L93.3726 29.2347C93.3079 29.28 93.2297 29.3178 93.1377 29.3481C93.0456 29.3785 92.917 29.4059 92.7519 29.4305C92.5852 29.4527 92.4528 29.4874 92.3546 29.5345C92.2567 29.5813 92.1869 29.6407 92.145 29.713C92.1035 29.7852 92.0829 29.8745 92.0829 29.9803C92.0829 30.149 92.1322 30.2771 92.231 30.3647C92.3302 30.4525 92.4674 30.4962 92.6428 30.4962Z" fill="black"/>
<path d="M94.8372 30.7801V27.906H95.241V28.3568L95.2952 28.3699C95.4291 28.0429 95.681 27.8793 96.051 27.8793C96.2475 27.8793 96.3943 27.915 96.4917 27.9862L96.3819 28.346L96.3299 28.3568C96.2224 28.303 96.1044 28.2759 95.9758 28.2759C95.7464 28.2759 95.57 28.3619 95.4462 28.5339C95.3229 28.7058 95.2613 28.9847 95.2613 29.3705V30.7801H94.8372Z" fill="black"/>
<path d="M97.2702 27.3503C97.1801 27.3503 97.1066 27.3221 97.0499 27.2658C96.9935 27.2094 96.9653 27.1377 96.9653 27.0505C96.9653 26.9638 96.9935 26.8922 97.0499 26.8359C97.1066 26.7795 97.1801 26.7513 97.2702 26.7513C97.3607 26.7513 97.4342 26.7795 97.4906 26.8359C97.5469 26.8922 97.5751 26.9638 97.5751 27.0505C97.5751 27.1377 97.5469 27.2094 97.4906 27.2658C97.4342 27.3221 97.3607 27.3503 97.2702 27.3503ZM97.0571 30.78V27.9059H97.4812V30.78H97.0571Z" fill="black"/>
<path d="M99.926 30.3255L100.061 30.6304C99.9936 30.6979 99.9047 30.7488 99.7945 30.7835C99.6842 30.8186 99.5648 30.8363 99.4362 30.8363C98.8871 30.8363 98.6125 30.5585 98.6125 30.0025V28.2533H98.1118V27.9043H98.6125V27.2974L99.0373 27.2266V27.9043H99.9622V28.2533H99.0373V29.9606C99.0373 30.2906 99.1806 30.4555 99.4672 30.4555C99.6237 30.4555 99.7584 30.4122 99.8711 30.3255H99.926Z" fill="black"/>
<path d="M100.747 32.0008C100.65 32.0008 100.559 31.9925 100.475 31.9762C100.39 31.9598 100.318 31.9366 100.257 31.9068L100.335 31.5709L100.382 31.555C100.424 31.5761 100.476 31.594 100.538 31.6084C100.601 31.6233 100.665 31.6308 100.731 31.6308C100.848 31.6308 100.944 31.6151 101.021 31.5839C101.098 31.5525 101.163 31.5008 101.218 31.4285C101.272 31.3567 101.323 31.2573 101.37 31.1301L101.472 30.8491L100.317 27.907H100.776L101.68 30.2523H101.73L102.605 27.907H103.04L101.756 31.232C101.683 31.4159 101.601 31.564 101.511 31.6764C101.42 31.7885 101.313 31.8707 101.19 31.9227C101.067 31.9748 100.919 32.0008 100.747 32.0008Z" fill="black"/>
<path d="M29.5013 30.6152L28.6928 27.9109H21.9742L21.1657 30.6152H14.8655L21.863 11.4355H29.0273L36.0248 30.6152H29.5013ZM23.2567 23.6177H27.4104L25.4032 16.7879H25.292L23.2567 23.6177Z" fill="#F38528"/>
<path d="M43.1854 11.2126C46.0292 11.2126 48.278 11.9235 49.9322 13.3454C51.5862 14.7673 52.4133 16.7979 52.4133 19.4369H46.5306C46.5306 18.3219 46.238 17.4391 45.6528 16.7889C45.0676 16.1383 44.236 15.8128 43.158 15.8128C41.9124 15.8128 40.997 16.2033 40.4117 16.984C39.8265 17.7643 39.5339 18.8515 39.5339 20.2454V22.0292C39.5339 23.4049 39.8265 24.4877 40.4117 25.2776C40.997 26.0671 41.8936 26.4618 43.1016 26.4618C44.2912 26.4618 45.1927 26.1553 45.806 25.5421C46.419 24.929 46.7257 24.0649 46.7257 22.9497H52.4133C52.4133 25.5701 51.6093 27.5772 50.0016 28.9711C48.3942 30.3652 46.1221 31.062 43.1854 31.062C39.9143 31.062 37.4379 30.2259 35.7559 28.5535C34.0739 26.8807 33.2329 24.4088 33.2329 21.1377C33.2329 17.8667 34.0739 15.3948 35.7559 13.7219C37.4379 12.0491 39.9143 11.2126 43.1854 11.2126Z" fill="black"/>
<path d="M64.2344 30.615L63.426 27.9106H56.7074L55.8989 30.615H49.5986L56.5961 11.4353H63.7605L70.758 30.615H64.2344ZM57.9898 23.6175H62.1435L60.1364 16.7876H60.0251L57.9898 23.6175Z" fill="#F38528"/>
</svg>
